# xmcd
#
# Track frame offsets:
#	150
#	18322
#	37454
#	54672
#	70758
#	88361
#	104098
#	122251
#	139954
#	155256
#	173959
#	189402
#	202411
#	218306
#	234644
#	251525
#
# Disc length: 3584 seconds
# Revision: 0
# Processed by: cddbd v1.5.2PL0 Copyright (c) Steve Scherf et al.
# Submitted via: dBpowerAMP V12.0
#
DISCID=ed0dfe10
DTITLE=Lonestar - Amazed: The Best Of
DYEAR=2010
DGENRE=Country
TTITLE0=Amazed
TTITLE1=I'm Already There
TTITLE2=I've Gotta Find You
TTITLE3=Smile
TTITLE4=Let's Be Us Again
TTITLE5=Mr. Mom
TTITLE6=You're Like Coming Home
TTITLE7=Mountains
TTITLE8=Say When
TTITLE9=Not A Day Goes By
TTITLE10=Tequilla Talkin'
TTITLE11=No News
TTITLE12=What About Now
TTITLE13=Unusually Unusual
TTITLE14=My Front Porch Looking In
TTITLE15=Walking in Memphis
EXTD=
EXTT0=
EXTT1=
EXTT2=
EXTT3=
EXTT4=
EXTT5=
EXTT6=
EXTT7=
EXTT8=
EXTT9=
EXTT10=
EXTT11=
EXTT12=
EXTT13=
EXTT14=
EXTT15=
PLAYORDER=
